<?xml version="1.0" encoding="UTF-8"?>
<svg xmlns="http://www.w3.org/2000/svg" xmlns:xlink="http://www.w3.org/1999/xlink" width="120px" height="120px" viewBox="0 0 120 120" version="1.1">
<g id="surface1">
<rect x="0" y="0" width="120" height="120" style="fill:rgb(100%,100%,100%);fill-opacity:1;stroke:none;"/>
<path style=" stroke:none;fill-rule:evenodd;fill:rgb(0%,0%,0%);fill-opacity:1;" d="M 78.976562 56.261719 C 81.816406 56.261719 83.148438 58.140625 83.148438 60.558594 C 83.148438 62.980469 81.816406 64.859375 78.976562 64.859375 C 76.136719 64.859375 74.800781 62.980469 74.800781 60.558594 C 74.800781 58.140625 76.136719 56.261719 78.976562 56.261719 Z M 78.976562 54.71875 C 73.421875 54.71875 71.855469 57.59375 71.855469 60.597656 C 71.855469 63.605469 73.421875 66.480469 78.976562 66.480469 C 84.53125 66.480469 86.097656 63.605469 86.097656 60.597656 C 86.097656 57.59375 84.53125 54.71875 78.976562 54.71875 Z M 78.976562 54.71875 "/>
<path style="fill-rule:evenodd;fill:rgb(0%,0%,0%);fill-opacity:1;stroke-width:0.291;stroke-linecap:round;stroke-linejoin:round;stroke:rgb(0%,0%,0%);stroke-opacity:1;stroke-miterlimit:2.613;" d="M 128.290663 88.798272 C 129.14401 92.669706 129.570684 94.60856 129.570684 94.60856 L 135.24293 95.88858 C 139.020245 96.735653 140.915177 97.162326 140.915177 97.162326 L 135.24293 98.436072 L 129.570684 99.716092 L 128.290663 105.388339 C 127.443591 109.165654 127.016918 111.060586 127.016918 111.060586 C 127.016918 111.060586 126.590244 109.165654 125.743172 105.388339 L 124.463152 99.716092 L 118.652863 98.436072 L 112.8363 97.162326 L 118.652863 95.88858 C 122.524297 95.035234 124.463152 94.60856 124.463152 94.60856 C 124.463152 94.60856 124.889825 92.669706 125.743172 88.798272 C 126.590244 84.920563 127.016918 82.981709 127.016918 82.981709 C 127.016918 82.981709 127.443591 84.920563 128.290663 88.798272 Z M 128.290663 88.798272 " transform="matrix(0.622549,0,0,0.622549,0,0)"/>
<path style=" stroke:none;fill-rule:evenodd;fill:rgb(0%,0%,0%);fill-opacity:1;" d="M 54.875 51.84375 L 54.875 55.175781 L 58.773438 55.175781 L 58.773438 57.265625 L 54.875 57.265625 L 54.875 62.363281 C 54.875 63.5625 55.378906 64.214844 56.640625 64.214844 C 57.359375 64.214844 58.230469 64.148438 58.6875 64.019531 L 58.6875 66.109375 C 57.792969 66.21875 56.792969 66.304688 55.878906 66.304688 C 52.566406 66.304688 51.566406 65.238281 51.566406 62.667969 L 51.566406 57.265625 L 48.515625 57.265625 L 48.515625 55.175781 L 51.566406 55.175781 L 51.566406 52.84375 Z M 63.601562 57.265625 L 60.769531 57.265625 L 60.769531 55.175781 L 63.601562 55.175781 L 63.601562 54.238281 C 63.601562 51.320312 65.148438 50.253906 68.285156 50.253906 C 69.199219 50.253906 70.332031 50.296875 71.113281 50.382812 L 71.113281 52.433594 C 70.699219 52.410156 70.136719 52.34375 69.613281 52.34375 C 67.414062 52.34375 66.910156 53.0625 66.910156 54.851562 L 66.910156 55.175781 L 70.308594 55.175781 L 70.308594 57.265625 L 66.910156 57.265625 L 66.910156 66.109375 L 63.601562 66.109375 Z M 88.199219 50.382812 L 91.511719 50.382812 L 91.511719 66.109375 L 88.199219 66.109375 Z M 94.648438 55.175781 L 97.957031 55.175781 L 97.957031 66.109375 L 94.648438 66.109375 Z M 94.472656 50.382812 L 98.128906 50.382812 L 98.128906 53.042969 L 94.472656 53.042969 Z M 107.582031 56.851562 C 110.089844 56.851562 111.265625 58.507812 111.265625 60.640625 C 111.265625 62.777344 110.089844 64.433594 107.582031 64.433594 C 105.078125 64.433594 103.902344 62.777344 103.902344 60.640625 C 103.902344 58.507812 105.078125 56.851562 107.582031 56.851562 Z M 107.582031 54.761719 C 102.03125 54.761719 100.460938 57.636719 100.460938 60.640625 C 100.460938 63.648438 102.03125 66.523438 107.582031 66.523438 C 113.140625 66.523438 114.707031 63.648438 114.707031 60.640625 C 114.707031 57.636719 113.136719 54.761719 107.582031 54.761719 Z M 9.054688 60.640625 C 9.054688 58.574219 10.449219 56.851562 12.539062 56.851562 C 14.628906 56.851562 16.023438 58.574219 16.023438 60.640625 C 16.023438 62.710938 14.628906 64.433594 12.539062 64.433594 C 10.449219 64.433594 9.054688 62.710938 9.054688 60.640625 Z M 5.742188 70.292969 L 9.054688 70.292969 L 9.054688 64.605469 L 9.097656 64.605469 C 10.1875 66.085938 11.929688 66.523438 13.5625 66.523438 C 15.699219 66.523438 19.464844 65.457031 19.464844 60.554688 C 19.464844 57.460938 17.484375 54.761719 13.433594 54.761719 C 11.691406 54.761719 9.902344 55.261719 8.96875 56.679688 L 8.925781 56.679688 C 8.925781 56.175781 8.878906 55.675781 8.835938 55.175781 L 5.65625 55.175781 C 5.699219 55.785156 5.742188 56.851562 5.742188 57.746094 Z M 28.460938 56.851562 C 30.964844 56.851562 32.140625 58.507812 32.140625 60.640625 C 32.140625 62.777344 30.964844 64.433594 28.460938 64.433594 C 25.957031 64.433594 24.78125 62.777344 24.78125 60.640625 C 24.78125 58.507812 25.957031 56.851562 28.460938 56.851562 Z M 28.460938 54.761719 C 22.90625 54.761719 21.339844 57.636719 21.339844 60.640625 C 21.339844 63.648438 22.90625 66.523438 28.460938 66.523438 C 34.015625 66.523438 35.582031 63.648438 35.582031 60.640625 C 35.582031 57.636719 34.015625 54.761719 28.460938 54.761719 Z M 37.640625 57.921875 C 37.640625 56.875 37.597656 55.917969 37.550781 55.175781 L 40.730469 55.175781 C 40.773438 55.851562 40.820312 56.503906 40.820312 57.179688 L 40.863281 57.179688 C 41.191406 56.441406 41.929688 54.957031 44.480469 54.957031 C 45.175781 54.957031 45.828125 55.023438 46.613281 55.175781 L 46.613281 57.660156 C 46.417969 57.617188 46.175781 57.59375 45.917969 57.570312 C 45.675781 57.550781 45.394531 57.527344 45.066406 57.527344 C 42.386719 57.527344 40.949219 58.683594 40.949219 61.6875 L 40.949219 66.109375 L 37.640625 66.109375 Z M 37.640625 57.921875 "/>
<path style=" stroke:none;fill-rule:evenodd;fill:rgb(15.686275%,28.235294%,56.470588%);fill-opacity:1;" d="M 78.613281 55.71875 C 81.453125 55.71875 82.785156 57.597656 82.785156 60.015625 C 82.785156 62.4375 81.453125 64.3125 78.613281 64.3125 C 75.773438 64.3125 74.4375 62.4375 74.4375 60.015625 C 74.4375 57.597656 75.773438 55.71875 78.613281 55.71875 Z M 78.613281 54.171875 C 73.058594 54.171875 71.492188 57.046875 71.492188 60.054688 C 71.492188 63.058594 73.058594 65.933594 78.613281 65.933594 C 84.167969 65.933594 85.734375 63.058594 85.734375 60.054688 C 85.734375 57.046875 84.167969 54.171875 78.613281 54.171875 Z M 78.613281 54.171875 "/>
<path style="fill-rule:evenodd;fill:rgb(43.137255%,47.45098%,69.411765%);fill-opacity:1;stroke-width:0.211;stroke-linecap:square;stroke-linejoin:round;stroke:rgb(0%,0%,0%);stroke-opacity:1;stroke-miterlimit:2.613;" d="M 127.707125 87.919827 L 128.987145 93.736389 L 134.659392 95.010135 C 138.436707 95.863482 140.331639 96.283881 140.331639 96.283881 C 140.331639 96.283881 138.436707 96.716829 134.659392 97.563901 C 130.875802 98.417248 128.987145 98.837647 128.987145 98.837647 L 127.707125 104.509894 C 126.860052 108.293483 126.433379 110.182141 126.433379 110.182141 L 125.159633 104.509894 L 123.879613 98.837647 L 118.069325 97.563901 L 112.252762 96.283881 L 118.069325 95.010135 L 123.879613 93.736389 L 125.159633 87.919827 L 126.433379 82.109538 C 126.433379 82.109538 126.860052 84.048393 127.707125 87.919827 Z M 127.707125 87.919827 " transform="matrix(0.622549,0,0,0.622549,0,0)"/>
<path style=" stroke:none;fill-rule:evenodd;fill:rgb(100%,100%,100%);fill-opacity:1;" d="M 78.734375 55.550781 L 78.734375 51.136719 C 79.261719 53.550781 79.792969 55.964844 80.320312 58.375 C 80.320312 58.375 80.058594 58.640625 79.527344 59.171875 L 78.734375 59.964844 Z M 83.148438 59.964844 L 87.5625 59.964844 C 87.5625 59.964844 86.355469 60.230469 83.941406 60.761719 L 80.324219 61.554688 L 78.734375 59.964844 Z M 78.734375 64.378906 L 78.734375 68.792969 L 77.9375 65.175781 L 77.144531 61.554688 L 77.9375 60.761719 L 78.734375 59.96875 Z M 74.320312 59.964844 L 69.90625 59.964844 L 73.523438 59.171875 L 77.144531 58.378906 C 77.144531 58.378906 77.410156 58.640625 77.9375 59.171875 L 78.730469 59.964844 Z M 74.320312 59.964844 "/>
<path style=" stroke:none;fill-rule:evenodd;fill:rgb(15.686275%,28.235294%,56.470588%);fill-opacity:1;" d="M 8.691406 60.097656 C 8.691406 58.027344 10.085938 56.308594 12.175781 56.308594 C 14.265625 56.308594 15.660156 58.027344 15.660156 60.097656 C 15.660156 62.167969 14.265625 63.886719 12.175781 63.886719 C 10.085938 63.886719 8.691406 62.167969 8.691406 60.097656 Z M 5.378906 69.746094 L 8.691406 69.746094 L 8.691406 64.0625 L 8.734375 64.0625 C 9.824219 65.542969 11.566406 65.980469 13.199219 65.980469 C 15.335938 65.980469 19.101562 64.910156 19.101562 60.011719 C 19.101562 56.917969 17.121094 54.21875 13.070312 54.21875 C 11.328125 54.21875 9.542969 54.71875 8.605469 56.132812 L 8.5625 56.132812 C 8.5625 55.632812 8.515625 55.132812 8.472656 54.628906 L 5.292969 54.628906 C 5.335938 55.242188 5.378906 56.308594 5.378906 57.199219 Z M 28.097656 56.308594 C 30.601562 56.308594 31.777344 57.964844 31.777344 60.097656 C 31.777344 62.234375 30.601562 63.886719 28.097656 63.886719 C 25.59375 63.886719 24.417969 62.234375 24.417969 60.097656 C 24.417969 57.964844 25.59375 56.308594 28.097656 56.308594 Z M 28.097656 54.21875 C 22.542969 54.21875 20.976562 57.09375 20.976562 60.097656 C 20.976562 63.105469 22.542969 65.980469 28.097656 65.980469 C 33.652344 65.980469 35.21875 63.105469 35.21875 60.097656 C 35.21875 57.09375 33.652344 54.21875 28.097656 54.21875 Z M 37.277344 57.375 C 37.277344 56.332031 37.230469 55.371094 37.1875 54.632812 L 40.367188 54.632812 C 40.410156 55.304688 40.457031 55.960938 40.457031 56.636719 L 40.5 56.636719 C 40.824219 55.894531 41.566406 54.414062 44.113281 54.414062 C 44.8125 54.414062 45.464844 54.480469 46.25 54.632812 L 46.25 57.113281 C 46.054688 57.070312 45.8125 57.050781 45.550781 57.027344 C 45.269531 57 44.984375 56.984375 44.703125 56.984375 C 42.023438 56.984375 40.585938 58.136719 40.585938 61.144531 L 40.585938 65.566406 L 37.277344 65.566406 Z M 54.511719 51.296875 L 54.511719 54.632812 L 58.410156 54.632812 L 58.410156 56.722656 L 54.511719 56.722656 L 54.511719 61.820312 C 54.511719 63.015625 55.015625 63.671875 56.277344 63.671875 C 56.996094 63.671875 57.867188 63.605469 58.324219 63.472656 L 58.324219 65.566406 C 57.429688 65.675781 56.429688 65.761719 55.515625 65.761719 C 52.203125 65.761719 51.203125 64.695312 51.203125 62.125 L 51.203125 56.722656 L 48.152344 56.722656 L 48.152344 54.632812 L 51.203125 54.632812 L 51.203125 52.300781 Z M 63.238281 56.722656 L 60.40625 56.722656 L 60.40625 54.632812 L 63.238281 54.632812 L 63.238281 53.695312 C 63.238281 50.777344 64.785156 49.707031 67.921875 49.707031 C 68.835938 49.707031 69.96875 49.753906 70.75 49.839844 L 70.75 51.886719 C 70.339844 51.863281 69.773438 51.800781 69.25 51.800781 C 67.050781 51.800781 66.546875 52.519531 66.546875 54.304688 L 66.546875 54.628906 L 69.945312 54.628906 L 69.945312 56.722656 L 66.546875 56.722656 L 66.546875 65.5625 L 63.238281 65.5625 Z M 87.835938 49.839844 L 91.148438 49.839844 L 91.148438 65.566406 L 87.835938 65.566406 Z M 94.28125 54.632812 L 97.59375 54.632812 L 97.59375 65.566406 L 94.28125 65.566406 Z M 94.109375 49.839844 L 97.769531 49.839844 L 97.769531 52.496094 L 94.109375 52.496094 Z M 107.222656 56.308594 C 109.726562 56.308594 110.902344 57.964844 110.902344 60.097656 C 110.902344 62.234375 109.726562 63.886719 107.222656 63.886719 C 104.714844 63.886719 103.539062 62.234375 103.539062 60.097656 C 103.539062 57.964844 104.714844 56.308594 107.222656 56.308594 Z M 107.222656 54.21875 C 101.667969 54.21875 100.097656 57.09375 100.097656 60.097656 C 100.097656 63.105469 101.667969 65.980469 107.222656 65.980469 C 112.773438 65.980469 114.34375 63.105469 114.34375 60.097656 C 114.34375 57.09375 112.773438 54.21875 107.222656 54.21875 Z M 107.222656 54.21875 "/>
</g>
</svg>
